<svg width="234" height="45" viewBox="0 0 234 45" fill="none" xmlns="http://www.w3.org/2000/svg">
<path d="M2.34488 31.1378C6.98869 24.8192 13.4502 14.3894 14.4825 7.60446L2.34488 1H9.90981H25.6281L30.4192 16.2581L30.4094 16.2708L43.3636 23.3197L28.0657 44H1L2.34488 31.1378Z" fill="#0A0F26"/>
<path d="M9.90981 1C21.2068 1.5044 9.57359 21.3021 2.34488 31.1378M2.34488 31.1378L21.5094 27.8592M2.34488 31.1378L1 44M21.5094 27.8592L30.4192 16.2581L25.6281 1H2.34488L43.3636 23.3197L28.0657 44H1M21.5094 27.8592L1 44M2.34488 2.7654V16.195V29.6246" stroke="white"/>
<path d="M46.4228 27.551V14.004L44.5598 13.751C44.4678 13.475 44.4678 13.199 44.5598 12.923L47.7108 12.992H57.0028L57.0258 18.328C56.6884 18.3894 56.4048 18.3894 56.1748 18.328L55.0938 14.165H48.8838V20.95L52.5638 20.881L53.0928 18.627C53.3228 18.5657 53.6064 18.5657 53.9438 18.627C53.8824 19.4857 53.8518 20.4747 53.8518 21.594C53.8518 22.6214 53.8748 23.618 53.9208 24.584C53.6448 24.676 53.3688 24.676 53.0928 24.584L52.5868 22.192L48.8838 22.123V30.288L50.9768 30.518C51.0381 30.748 51.0381 31.0317 50.9768 31.369C50.0108 31.323 48.9221 31.3 47.7108 31.3C46.8061 31.3 45.7098 31.3154 44.4218 31.346C44.3298 31.07 44.3298 30.794 44.4218 30.518L46.3308 30.242C46.3921 29.6594 46.4228 28.7624 46.4228 27.551ZM63.1914 16.741V30.288L65.0544 30.518C65.1157 30.748 65.1157 31.0317 65.0544 31.369C64.0884 31.323 63.0381 31.3 61.9034 31.3C61.0754 31.3 60.0174 31.3154 58.7294 31.346C58.6374 31.07 58.6374 30.794 58.7294 30.518L60.6384 30.242C60.6997 29.6594 60.7304 28.7624 60.7304 27.551V14.004L58.8674 13.774C58.8061 13.544 58.8061 13.2604 58.8674 12.923C59.7107 12.9844 60.7611 13.015 62.0184 13.015C63.1377 13.015 64.1957 12.992 65.1924 12.946C65.2844 13.222 65.2844 13.498 65.1924 13.774L63.2834 14.05C63.2221 14.6327 63.1914 15.5297 63.1914 16.741ZM82.3049 25.136V16.81C82.3049 15.5987 82.2743 14.7017 82.2129 14.119L80.0739 13.843C79.9819 13.567 79.9819 13.291 80.0739 13.015C81.0399 13.061 81.9753 13.084 82.8799 13.084C83.8766 13.084 84.8043 13.0534 85.6629 12.992C85.7243 13.3294 85.7243 13.613 85.6629 13.843L83.5699 14.073V31.3H82.3509L72.2079 17.569C71.7326 16.9404 71.1729 16.12 70.5289 15.108C70.6056 15.8134 70.6439 16.6644 70.6439 17.661V27.551C70.6439 28.7624 70.6746 29.6594 70.7359 30.242L72.8749 30.518C72.9669 30.794 72.9669 31.07 72.8749 31.346C71.5563 31.3154 70.6209 31.3 70.0689 31.3C69.1643 31.3 68.2366 31.323 67.2859 31.369C67.2246 31.0317 67.2246 30.748 67.2859 30.518L69.3789 30.288V16.741C69.3789 15.5297 69.3483 14.6327 69.2869 14.05L67.3779 13.774C67.2859 13.5134 67.2859 13.2527 67.3779 12.992H71.8859L81.1089 25.55C81.2316 25.7187 81.3619 25.918 81.4999 26.148C81.6533 26.378 81.8143 26.654 81.9829 26.976C82.1669 27.298 82.3126 27.5434 82.4199 27.712C82.3433 26.792 82.3049 25.9334 82.3049 25.136ZM87.1322 12.992H103.025L103.048 18.328C102.711 18.3894 102.427 18.3894 102.197 18.328L101.116 14.165H96.3322V30.288L98.6552 30.518C98.7166 30.748 98.7166 31.0317 98.6552 31.369C97.6892 31.323 96.5239 31.3 95.1592 31.3C94.1012 31.3 92.9282 31.3154 91.6402 31.346C91.5482 31.07 91.5482 30.794 91.6402 30.518L93.7792 30.242C93.8406 29.6594 93.8712 28.7624 93.8712 27.551V14.165H89.0412L87.9602 18.328C87.7302 18.3894 87.4466 18.3894 87.1092 18.328L87.1322 12.992ZM104.867 12.923C105.496 12.923 106.493 12.8924 107.857 12.831C109.237 12.7697 110.487 12.739 111.606 12.739C113.937 12.739 115.601 13.2067 116.597 14.142C117.594 15.062 118.092 16.35 118.092 18.006C118.092 19.0027 117.747 19.8997 117.057 20.697C116.367 21.4944 115.463 22.0924 114.343 22.491C115.003 23.6104 115.616 24.6607 116.183 25.642C116.766 26.6234 117.188 27.3517 117.448 27.827C117.709 28.3024 117.947 28.7317 118.161 29.115C118.376 29.483 118.529 29.736 118.621 29.874C118.729 30.012 118.828 30.127 118.92 30.219L120.576 30.449C120.638 30.679 120.638 30.9627 120.576 31.3H116.666L113.193 24.998C112.733 24.124 112.296 23.4494 111.882 22.974H111.56C110.778 22.974 109.989 22.928 109.191 22.836V30.288L111.284 30.518C111.346 30.748 111.346 31.0317 111.284 31.369C110.318 31.323 109.23 31.3 108.018 31.3C107.114 31.3 106.017 31.3154 104.729 31.346C104.637 31.07 104.637 30.794 104.729 30.518L106.638 30.242C106.7 29.6594 106.73 28.7624 106.73 27.551V14.004L104.867 13.774C104.806 13.544 104.806 13.2604 104.867 12.923ZM109.191 16.741V21.893C109.667 21.9544 110.357 21.985 111.261 21.985C112.043 21.985 112.71 21.8624 113.262 21.617C113.83 21.3564 114.251 21.019 114.527 20.605C114.803 20.1757 115.003 19.7387 115.125 19.294C115.248 18.8494 115.309 18.3817 115.309 17.891C115.309 16.5724 114.98 15.545 114.32 14.809C113.661 14.073 112.565 13.705 111.031 13.705C110.464 13.705 109.897 13.7587 109.329 13.866C109.237 14.74 109.191 15.6984 109.191 16.741ZM130.396 12.532C131.899 12.532 133.248 12.8004 134.444 13.337C135.64 13.8737 136.606 14.5944 137.342 15.499C138.078 16.3884 138.638 17.385 139.021 18.489C139.42 19.5777 139.619 20.72 139.619 21.916C139.619 24.676 138.753 27.0067 137.02 28.908C135.288 30.8094 133.08 31.76 130.396 31.76C128.909 31.76 127.567 31.4917 126.371 30.955C125.175 30.4184 124.209 29.7054 123.473 28.816C122.737 27.9114 122.17 26.9147 121.771 25.826C121.388 24.7374 121.196 23.6027 121.196 22.422C121.196 20.6587 121.58 19.0257 122.346 17.523C123.128 16.0204 124.225 14.8167 125.635 13.912C127.061 12.992 128.648 12.532 130.396 12.532ZM130.373 30.495C131.815 30.495 133.034 30.081 134.03 29.253C135.042 28.4097 135.763 27.3517 136.192 26.079C136.637 24.8064 136.859 23.388 136.859 21.824C136.859 20.3367 136.637 19.0104 136.192 17.845C135.763 16.6644 135.05 15.6984 134.053 14.947C133.057 14.1804 131.83 13.797 130.373 13.797C128.273 13.797 126.678 14.5637 125.589 16.097C124.501 17.6304 123.956 19.547 123.956 21.847C123.956 23.4264 124.171 24.8524 124.6 26.125C125.03 27.3824 125.743 28.425 126.739 29.253C127.736 30.081 128.947 30.495 130.373 30.495ZM141.816 12.923C142.444 12.923 143.441 12.8924 144.806 12.831C146.186 12.7697 147.435 12.739 148.555 12.739C150.931 12.739 152.626 13.2067 153.638 14.142C154.65 15.062 155.156 16.35 155.156 18.006C155.156 19.478 154.496 20.7124 153.178 21.709C151.874 22.7057 150.318 23.204 148.509 23.204C147.573 23.204 146.784 23.158 146.14 23.066V30.288L148.233 30.518C148.294 30.748 148.294 31.0317 148.233 31.369C147.267 31.323 146.178 31.3 144.967 31.3C144.062 31.3 142.966 31.3154 141.678 31.346C141.586 31.07 141.586 30.794 141.678 30.518L143.587 30.242C143.648 29.6594 143.679 28.7624 143.679 27.551V14.004L141.816 13.774C141.754 13.544 141.754 13.2604 141.816 12.923ZM146.14 16.741V22.123C146.615 22.1844 147.305 22.215 148.21 22.215C149.007 22.215 149.689 22.0847 150.257 21.824C150.839 21.548 151.276 21.1877 151.568 20.743C151.859 20.283 152.066 19.823 152.189 19.363C152.311 18.903 152.373 18.4124 152.373 17.891C152.373 16.557 152.035 15.5297 151.361 14.809C150.686 14.073 149.559 13.705 147.98 13.705C147.412 13.705 146.845 13.7587 146.278 13.866C146.186 14.74 146.14 15.6984 146.14 16.741ZM166.222 12.532C167.724 12.532 169.074 12.8004 170.27 13.337C171.466 13.8737 172.432 14.5944 173.168 15.499C173.904 16.3884 174.463 17.385 174.847 18.489C175.245 19.5777 175.445 20.72 175.445 21.916C175.445 24.676 174.578 27.0067 172.846 28.908C171.113 30.8094 168.905 31.76 166.222 31.76C164.734 31.76 163.393 31.4917 162.197 30.955C161.001 30.4184 160.035 29.7054 159.299 28.816C158.563 27.9114 157.995 26.9147 157.597 25.826C157.213 24.7374 157.022 23.6027 157.022 22.422C157.022 20.6587 157.405 19.0257 158.172 17.523C158.954 16.0204 160.05 14.8167 161.461 13.912C162.887 12.992 164.474 12.532 166.222 12.532ZM166.199 30.495C167.64 30.495 168.859 30.081 169.856 29.253C170.868 28.4097 171.588 27.3517 172.018 26.079C172.462 24.8064 172.685 23.388 172.685 21.824C172.685 20.3367 172.462 19.0104 172.018 17.845C171.588 16.6644 170.875 15.6984 169.879 14.947C168.882 14.1804 167.655 13.797 166.199 13.797C164.098 13.797 162.503 14.5637 161.415 16.097C160.326 17.6304 159.782 19.547 159.782 21.847C159.782 23.4264 159.996 24.8524 160.426 26.125C160.855 27.3824 161.568 28.425 162.565 29.253C163.561 30.081 164.773 30.495 166.199 30.495ZM180.792 31.3L177.503 31.369C177.411 31.093 177.411 30.817 177.503 30.541L179.412 30.288C179.473 29.506 179.504 28.6014 179.504 27.574V14.004L177.641 13.774C177.579 13.544 177.579 13.2604 177.641 12.923C178.484 12.9844 179.534 13.015 180.792 13.015C181.911 13.015 182.969 12.992 183.966 12.946C184.058 13.222 184.058 13.498 183.966 13.774L182.057 14.05C181.995 14.6327 181.965 15.5297 181.965 16.741V30.127H189.555L190.636 25.964C190.866 25.9027 191.149 25.9027 191.487 25.964L191.464 31.3H180.792ZM197.575 16.741V30.288L199.438 30.518C199.5 30.748 199.5 31.0317 199.438 31.369C198.472 31.323 197.422 31.3 196.287 31.3C195.459 31.3 194.401 31.3154 193.113 31.346C193.021 31.07 193.021 30.794 193.113 30.518L195.022 30.242C195.084 29.6594 195.114 28.7624 195.114 27.551V14.004L193.251 13.774C193.19 13.544 193.19 13.2604 193.251 12.923C194.095 12.9844 195.145 13.015 196.402 13.015C197.522 13.015 198.58 12.992 199.576 12.946C199.668 13.222 199.668 13.498 199.576 13.774L197.667 14.05C197.606 14.6327 197.575 15.5297 197.575 16.741ZM204.407 29.713C205.296 30.3264 206.546 30.633 208.156 30.633C209.244 30.633 210.057 30.3187 210.594 29.69C211.146 29.0614 211.422 28.31 211.422 27.436C211.422 26.976 211.383 26.5927 211.307 26.286C211.23 25.964 211.061 25.6037 210.801 25.205C210.555 24.8064 210.157 24.4077 209.605 24.009C209.053 23.6104 208.332 23.1887 207.443 22.744C206.4 22.2227 205.557 21.732 204.913 21.272C204.269 20.812 203.786 20.3367 203.464 19.846C203.142 19.3554 202.927 18.8877 202.82 18.443C202.712 17.9984 202.659 17.4464 202.659 16.787C202.659 15.4377 203.195 14.395 204.269 13.659C205.357 12.9077 206.638 12.532 208.11 12.532C209.934 12.532 211.698 12.992 213.4 13.912V18.328C212.878 18.42 212.441 18.42 212.089 18.328L211.353 14.349C210.371 13.8124 209.275 13.544 208.064 13.544C207.251 13.544 206.561 13.7894 205.994 14.28C205.442 14.7554 205.166 15.43 205.166 16.304C205.166 16.7947 205.196 17.178 205.258 17.454C205.319 17.73 205.472 18.0597 205.718 18.443C205.963 18.811 206.369 19.1867 206.937 19.57C207.504 19.938 208.263 20.352 209.214 20.812C212.495 22.4067 214.136 24.308 214.136 26.516C214.136 28.08 213.538 29.345 212.342 30.311C211.146 31.277 209.582 31.76 207.65 31.76C205.733 31.76 203.97 31.3077 202.36 30.403V25.987C202.881 25.895 203.318 25.895 203.671 25.987L204.407 29.713Z" fill="#0A0F26"/>
</svg>
